<svg xmlns="http://www.w3.org/2000/svg" width="153" height="135" viewBox="0 0 153 135">
    <path id="Polígono_1" data-name="Polígono 1" d="M74.894,2.166a2,2,0,0,1,3.213,0L87.8,15.24a2,2,0,0,0,2.595.547l14.946-8.5A2,2,0,0,1,108.3,8.663l2.791,15.047a2,2,0,0,0,2.234,1.617l17.281-2.333a2,2,0,0,1,2.186,2.547L128.57,39.865a2,2,0,0,0,1.445,2.509l16.385,3.99a2,2,0,0,1,1.012,3.282L137.1,61.083a2,2,0,0,0,.309,2.957l12.826,9.329a2,2,0,0,1-.342,3.435l-14.885,6.83a2,2,0,0,0-.907,2.8l7.421,13.117a2,2,0,0,1-1.637,2.982l-17.216.893a2,2,0,0,0-1.894,2.1l.783,14.994a2,2,0,0,1-2.632,2L102.406,117a2,2,0,0,0-2.465,1.091l-6.35,14.414a2,2,0,0,1-3.149.7L77.818,122.137a2,2,0,0,0-2.637,0L62.557,133.2a2,2,0,0,1-3.149-.7l-6.35-14.414A2,2,0,0,0,50.594,117l-16.523,5.526a2,2,0,0,1-2.632-2l.783-14.994a2,2,0,0,0-1.894-2.1l-17.216-.893a2,2,0,0,1-1.637-2.982L18.9,86.437a2,2,0,0,0-.907-2.8L3.106,76.8a2,2,0,0,1-.342-3.435L15.589,64.04a2,2,0,0,0,.309-2.957L5.588,49.646A2,2,0,0,1,6.6,46.364l16.385-3.99a2,2,0,0,0,1.445-2.509L20.209,25.541a2,2,0,0,1,2.186-2.547l17.28,2.333a2,2,0,0,0,2.234-1.617L44.7,8.663a2,2,0,0,1,2.955-1.374l14.946,8.5A2,2,0,0,0,65.2,15.24Z"/>
</svg>
