<svg xmlns="http://www.w3.org/2000/svg"
    xmlns:xlink="http://www.w3.org/1999/xlink" width="63.092" height="63.092" viewBox="0 0 63.092 63.092">
    <defs>
        <linearGradient id="linear-gradient" x1="0.5" x2="0.5" y2="1" gradientUnits="objectBoundingBox">
            <stop offset="0" stop-color="#0651b4"/>
            <stop offset="0.494" stop-color="#489781"/>
            <stop offset="1" stop-color="#7bd753"/>
        </linearGradient>
    </defs>
    <g id="Grupo_52" data-name="Grupo 52" transform="translate(-928.454 -1047.454)">
        <circle id="Elipse_5" data-name="Elipse 5" cx="20.5" cy="20.5" r="20.5" transform="translate(940 1061)" fill="#fff"/>
        <path id="Icon_ionic-ios-arrow-dropdown-circle" data-name="Icon ionic-ios-arrow-dropdown-circle" d="M3.375,34.921A31.546,31.546,0,1,0,34.921,3.375,31.541,31.541,0,0,0,3.375,34.921Zm43.846-6.582a2.938,2.938,0,0,1,4.14,0,2.891,2.891,0,0,1,.849,2.063,2.942,2.942,0,0,1-.864,2.078l-14.3,14.256a2.924,2.924,0,0,1-4.034-.091L18.5,32.176a2.928,2.928,0,1,1,4.14-4.14l12.3,12.421Z" transform="translate(925.079 1044.079)" fill="url(#linear-gradient)"/>
    </g>
</svg>
