<svg xmlns="http://www.w3.org/2000/svg"
    xmlns:xlink="http://www.w3.org/1999/xlink" width="81.092" height="81.092" viewBox="0 0 81.092 81.092">
    <defs>
        <linearGradient id="linear-gradient" x1="0.5" x2="0.5" y2="1" gradientUnits="objectBoundingBox">
            <stop offset="0" stop-color="#0651b4"/>
            <stop offset="0.494" stop-color="#489781"/>
            <stop offset="1" stop-color="#7bd753"/>
        </linearGradient>
        <filter id="Icon_ionic-ios-arrow-dropdown-circle" x="0" y="0" width="81.092" height="81.092" filterUnits="userSpaceOnUse">
            <feOffset dy="3" input="SourceAlpha"/>
            <feGaussianBlur stdDeviation="3" result="blur"/>
            <feFlood flood-opacity="0.161"/>
            <feComposite operator="in" in2="blur"/>
            <feComposite in="SourceGraphic"/>
        </filter>
    </defs>
    <g transform="matrix(1, 0, 0, 1, 0, 0)" filter="url(#Icon_ionic-ios-arrow-dropdown-circle)">
        <path id="Icon_ionic-ios-arrow-dropdown-circle-2" data-name="Icon ionic-ios-arrow-dropdown-circle" d="M3.375,34.921A31.546,31.546,0,1,0,34.921,3.375,31.541,31.541,0,0,0,3.375,34.921Zm43.846-6.582a2.938,2.938,0,0,1,4.14,0,2.891,2.891,0,0,1,.849,2.063,2.942,2.942,0,0,1-.864,2.078l-14.3,14.256a2.924,2.924,0,0,1-4.034-.091L18.5,32.176a2.928,2.928,0,1,1,4.14-4.14l12.3,12.421Z" transform="translate(5.63 72.47) rotate(-90)" fill="url(#linear-gradient)"/>
    </g>
</svg>
